{
	"asset":{
		"generator":"Khronos glTF Blender I/O v3.5.30",
		"version":"2.0"
	},
	"extensionsUsed":[
		"KHR_materials_specular",
		"KHR_materials_ior"
	],
	"scene":0,
	"scenes":[
		{
			"name":"Scene",
			"nodes":[
				0
			]
		}
	],
	"nodes":[
		{
			"mesh":0,
			"name":"TQ_ARD-node",
			"rotation":[
				0,
				0.7071068286895752,
				-0.7071068286895752,
				5.338508302088485e-08
			],
			"translation":[
				0,
				0.08845479041337967,
				0
			]
		}
	],
	"materials":[
		{
			"doubleSided":true,
			"extensions":{
				"KHR_materials_specular":{
					"specularColorFactor":[
						0,
						0,
						0
					]
				},
				"KHR_materials_ior":{
					"ior":0
				}
			},
			"name":"back-dil",
			"pbrMetallicRoughness":{
				"baseColorTexture":{
					"index":0
				},
				"metallicFactor":0
			}
		},
		{
			"doubleSided":true,
			"extensions":{
				"KHR_materials_specular":{
					"specularColorFactor":[
						0,
						0,
						0
					]
				},
				"KHR_materials_ior":{
					"ior":0
				}
			},
			"name":"TQ_ARD_back",
			"pbrMetallicRoughness":{
				"baseColorFactor":[
					0.996078372001648,
					0.9019607901573181,
					0.6627451181411743,
					1
				],
				"metallicFactor":0,
				"roughnessFactor":0.5
			}
		},
		{
			"doubleSided":true,
			"extensions":{
				"KHR_materials_specular":{
					"specularColorFactor":[
						0,
						0,
						0
					]
				},
				"KHR_materials_ior":{
					"ior":0
				}
			},
			"name":"TQ_ARD_edge",
			"pbrMetallicRoughness":{
				"baseColorTexture":{
					"index":1
				},
				"metallicFactor":0,
				"roughnessFactor":0.5
			}
		}
	],
	"meshes":[
		{
			"name":"TQ_ARD-geom",
			"primitives":[
				{
					"attributes":{
						"POSITION":0,
						"TEXCOORD_0":1,
						"NORMAL":2
					},
					"indices":3,
					"material":0
				},
				{
					"attributes":{
						"POSITION":4,
						"TEXCOORD_0":5,
						"NORMAL":6
					},
					"indices":7,
					"material":1
				},
				{
					"attributes":{
						"POSITION":8,
						"TEXCOORD_0":9,
						"NORMAL":10
					},
					"indices":11,
					"material":2
				}
			]
		}
	],
	"textures":[
		{
			"sampler":0,
			"source":0
		},
		{
			"sampler":0,
			"source":1
		}
	],
	"images":[
		{
			"bufferView":4,
			"mimeType":"image/jpeg",
			"name":"2"
		},
		{
			"bufferView":13,
			"mimeType":"image/png",
			"name":"TQ_ARD-I1"
		}
	],
	"accessors":[
		{
			"bufferView":0,
			"componentType":5126,
			"count":923,
			"max":[
				0.09784772992134094,
				0.12993037700653076,
				0.08764998614788055
			],
			"min":[
				-0.05606398731470108,
				-0.12165670096874237,
				-0.0539373978972435
			],
			"type":"VEC3"
		},
		{
			"bufferView":1,
			"componentType":5126,
			"count":923,
			"type":"VEC2"
		},
		{
			"bufferView":2,
			"componentType":5126,
			"count":923,
			"type":"VEC3"
		},
		{
			"bufferView":3,
			"componentType":5123,
			"count":2547,
			"type":"SCALAR"
		},
		{
			"bufferView":5,
			"componentType":5126,
			"count":805,
			"max":[
				0.0970032662153244,
				0.12918758392333984,
				0.08670122921466827
			],
			"min":[
				-0.05507754534482956,
				-0.12091496586799622,
				-0.053143613040447235
			],
			"type":"VEC3"
		},
		{
			"bufferView":6,
			"componentType":5126,
			"count":805,
			"type":"VEC2"
		},
		{
			"bufferView":7,
			"componentType":5126,
			"count":805,
			"type":"VEC3"
		},
		{
			"bufferView":8,
			"componentType":5123,
			"count":2547,
			"type":"SCALAR"
		},
		{
			"bufferView":9,
			"componentType":5126,
			"count":1211,
			"max":[
				0.09738276898860931,
				0.129930317401886,
				0.08764998614788055
			],
			"min":[
				-0.05606398731470108,
				-0.12165667116641998,
				-0.0539373978972435
			],
			"type":"VEC3"
		},
		{
			"bufferView":10,
			"componentType":5126,
			"count":1211,
			"type":"VEC2"
		},
		{
			"bufferView":11,
			"componentType":5126,
			"count":1211,
			"type":"VEC3"
		},
		{
			"bufferView":12,
			"componentType":5123,
			"count":2424,
			"type":"SCALAR"
		}
	],
	"bufferViews":[
		{
			"buffer":0,
			"byteLength":11076,
			"byteOffset":0,
			"target":34962
		},
		{
			"buffer":0,
			"byteLength":7384,
			"byteOffset":11076,
			"target":34962
		},
		{
			"buffer":0,
			"byteLength":11076,
			"byteOffset":18460,
			"target":34962
		},
		{
			"buffer":0,
			"byteLength":5094,
			"byteOffset":29536,
			"target":34963
		},
		{
			"buffer":0,
			"byteLength":315723,
			"byteOffset":34632
		},
		{
			"buffer":0,
			"byteLength":9660,
			"byteOffset":350356,
			"target":34962
		},
		{
			"buffer":0,
			"byteLength":6440,
			"byteOffset":360016,
			"target":34962
		},
		{
			"buffer":0,
			"byteLength":9660,
			"byteOffset":366456,
			"target":34962
		},
		{
			"buffer":0,
			"byteLength":5094,
			"byteOffset":376116,
			"target":34963
		},
		{
			"buffer":0,
			"byteLength":14532,
			"byteOffset":381212,
			"target":34962
		},
		{
			"buffer":0,
			"byteLength":9688,
			"byteOffset":395744,
			"target":34962
		},
		{
			"buffer":0,
			"byteLength":14532,
			"byteOffset":405432,
			"target":34962
		},
		{
			"buffer":0,
			"byteLength":4848,
			"byteOffset":419964,
			"target":34963
		},
		{
			"buffer":0,
			"byteLength":767,
			"byteOffset":424812
		}
	],
	"samplers":[
		{
			"magFilter":9729,
			"minFilter":9987
		}
	],
	"buffers":[
		{
			"byteLength":425580,
			"uri":"data:application/octet-stream;base64,"
		}
	]
}
